<svg id="flat" height="512" viewBox="0 0 512 512" width="512" xmlns="http://www.w3.org/2000/svg"><path d="m56 72h400v88h-400z" fill="#02c26a"/><path d="m392 72h22a42 42 0 0 1 42 42v22a0 0 0 0 1 0 0h-64a0 0 0 0 1 0 0v-64a0 0 0 0 1 0 0z" fill="#3cde8d" transform="matrix(-1 0 0 -1 848 208)"/><path d="m56 72h64a0 0 0 0 1 0 0v22a42 42 0 0 1 -42 42h-22a0 0 0 0 1 0 0v-64a0 0 0 0 1 0 0z" fill="#3cde8d"/><path d="m488 360h-200l-4.6863-4.6863a38.62739 38.62739 0 0 0 -27.3137-11.3137 38.62737 38.62737 0 0 0 -27.31368 11.3137l-4.68632 4.6863h-200v-240h464z" fill="#c78640"/><path d="m200 176h-128a7.99943 7.99943 0 0 1 -6.65625-3.5625l-16-24 13.3125-8.875 13.625 20.4375h119.4375l13.625-20.4375 13.3125 8.875-16 24a7.99943 7.99943 0 0 1 -6.65625 3.5625z" fill="#b1712c"/><path d="m248 144h16v176h-16z" fill="#b1712c"/><path d="m56 200h168v128h-168z" fill="#d1e4ff"/><path d="m88 232h40v32h-40z" fill="#ffcc4d"/><g fill="#b6caf0"><path d="m152 224h48v16h-48z"/><path d="m184 256h16v16h-16z"/><path d="m152 256h16v16h-16z"/><path d="m80 288h32v16h-32z"/><path d="m128 288h72v16h-72z"/></g><path d="m320 160h112v32h-112z" fill="#ffc431"/><path d="m320 224h112v32h-112z" fill="#ffc431"/><path d="m112 72 272-48 8 48z" fill="#00a64f"/><path d="m328 296h160v192h-160z" fill="#548aff"/><path d="m328 296 24 48h112l24-48z" fill="#7dafff"/><circle cx="408" cy="416" fill="#7dafff" r="48"/><circle cx="408" cy="320" fill="#639aff" r="8"/><path d="m432 312h16v16h-16z" fill="#3cde8d"/><path d="m368 312h16v16h-16z" fill="#639aff"/><path d="m440 200h-128a7.99943 7.99943 0 0 1 -6.65625-3.5625l-16-24 13.3125-8.875 13.625 20.4375h119.4375l13.625-20.4375 13.3125 8.875-16 24a7.99943 7.99943 0 0 1 -6.65625 3.5625z" fill="#b1712c"/><path d="m440 264h-128a7.99943 7.99943 0 0 1 -6.65625-3.5625l-16-24 13.3125-8.875 13.625 20.4375h119.4375l13.625-20.4375 13.3125 8.875-16 24a7.99943 7.99943 0 0 1 -6.65625 3.5625z" fill="#b1712c"/><circle cx="408" cy="416" fill="#6cdbe6" r="24"/></svg>