<svg id="Capa_1" enable-background="new 0 0 511.942 511.942" height="512" viewBox="0 0 511.942 511.942" width="512" xmlns="http://www.w3.org/2000/svg"><g><g><g><path d="m344.638 145.725c.038 27.827-1.578 55.647-4.854 83.474-1.949 16.58-15.495 29.42-32.165 30.466-87.706 5.514-175.412 5.514-263.118 0-16.671-1.047-30.216-13.887-32.166-30.466-3.276-27.827-4.892-55.647-4.854-83.474.038-22.336 1.138-44.672 3.314-67.016.463-4.771.978-9.549 1.54-14.327 1.949-16.579 15.495-29.419 32.165-30.466 87.706-5.514 175.412-5.514 263.118 0 16.671 1.047 30.216 13.887 32.165 30.466.561 4.778 1.077 9.556 1.54 14.327 2.177 22.344 3.277 44.68 3.315 67.016z" fill="#ffd064"/><path d="m45.16 259.703c-.22-.008-.44-.023-.66-.038-16.671-1.047-30.216-13.887-32.166-30.467-3.276-27.827-4.892-55.647-4.854-83.474.038-22.336 1.138-44.672 3.314-67.016.463-4.771.978-9.549 1.54-14.327 1.949-16.58 15.495-29.42 32.166-30.467.227-.015.447-.03.675-.038-9.177 5.65-15.654 15.298-16.981 26.598-.592 4.998-1.13 10.004-1.616 15.002-2.275 23.406-3.428 46.803-3.466 70.194-.045 29.147 1.646 58.286 5.082 87.433 1.327 11.303 7.797 20.942 16.966 26.6z" fill="#ffc250"/><path d="m344.638 145.725c-107.175 1.373-214.35 1.441-321.525.182-5.21-.053-10.421-.114-15.631-.182.038-22.336 1.138-44.672 3.314-67.016 5.165-.068 10.33-.129 15.495-.182 105.014-1.198 210.019-1.13 315.033.182 2.176 22.344 3.276 44.68 3.314 67.016z" fill="#407093"/><path d="m26.29 78.527c-2.086 22.389-3.14 44.771-3.178 67.145v.235c-5.21-.053-10.421-.114-15.631-.182.038-22.336 1.138-44.672 3.314-67.016 5.165-.068 10.33-.129 15.495-.182z" fill="#365e7d"/></g><g><path d="m128.082 235.884c116.004-7.196 232.008-7.196 348.011 0 10.519.653 19.184 8.556 20.752 18.978 10.18 67.642 10.18 135.284 0 202.926-1.568 10.422-10.234 18.325-20.752 18.978-116.004 7.196-232.007 7.196-348.011 0-10.519-.652-19.184-8.556-20.752-18.978-10.18-67.642-10.18-135.284 0-202.926 1.568-10.421 10.233-18.325 20.752-18.978z" fill="#95d6a4"/><path d="m169.789 451.901c0-20.996-17.02-38.016-38.016-38.016-1.502 0-2.981.097-4.438.266-3.406-38.488-3.406-77.165 0-115.654 1.457.169 2.936.266 4.438.266 20.996 0 38.016-17.02 38.016-38.016 0-.688-.02-1.371-.056-2.05 44.109-2.095 88.467-3.168 132.355-3.168 42.386 0 85.212.988 127.826 2.943-.044.753-.074 1.51-.074 2.275 0 20.996 17.02 38.016 38.016 38.016 3.071 0 6.054-.374 8.915-1.062 3.501 39.016 3.501 78.228 0 117.245-2.861-.688-5.843-1.062-8.915-1.062-20.996 0-38.016 17.02-38.016 38.016 0 .764.029 1.521.074 2.275-42.614 1.955-85.44 2.943-127.826 2.943-43.888 0-88.245-1.072-132.355-3.168.036-.678.056-1.361.056-2.049z" fill="#95d6a4"/><g fill="#78c2a4"><ellipse cx="302.088" cy="356.325" rx="79.606" ry="71.861"/><g><circle cx="180.011" cy="356.325" r="19.65"/><circle cx="424.165" cy="356.325" r="19.65"/></g></g></g></g><g><path d="m47.922 195.827v-25.356c0-4.142-3.357-7.5-7.5-7.5s-7.5 3.358-7.5 7.5v25.356c0 4.142 3.357 7.5 7.5 7.5s7.5-3.358 7.5-7.5z"/><path d="m67.861 195.827v-25.356c0-4.142-3.357-7.5-7.5-7.5s-7.5 3.358-7.5 7.5v25.356c0 4.142 3.357 7.5 7.5 7.5s7.5-3.358 7.5-7.5z"/><path d="m87.802 195.827v-25.356c0-4.142-3.357-7.5-7.5-7.5s-7.5 3.358-7.5 7.5v25.356c0 4.142 3.357 7.5 7.5 7.5s7.5-3.358 7.5-7.5z"/><path d="m119.461 195.827v-25.356c0-4.142-3.357-7.5-7.5-7.5s-7.5 3.358-7.5 7.5v25.356c0 4.142 3.357 7.5 7.5 7.5s7.5-3.358 7.5-7.5z"/><path d="m139.4 195.827v-25.356c0-4.142-3.357-7.5-7.5-7.5s-7.5 3.358-7.5 7.5v25.356c0 4.142 3.357 7.5 7.5 7.5s7.5-3.358 7.5-7.5z"/><path d="m159.34 195.827v-25.356c0-4.142-3.357-7.5-7.5-7.5s-7.5 3.358-7.5 7.5v25.356c0 4.142 3.357 7.5 7.5 7.5s7.5-3.358 7.5-7.5z"/><path d="m190.999 195.827v-25.356c0-4.142-3.357-7.5-7.5-7.5s-7.5 3.358-7.5 7.5v25.356c0 4.142 3.357 7.5 7.5 7.5s7.5-3.358 7.5-7.5z"/><path d="m210.939 195.827v-25.356c0-4.142-3.357-7.5-7.5-7.5s-7.5 3.358-7.5 7.5v25.356c0 4.142 3.357 7.5 7.5 7.5s7.5-3.358 7.5-7.5z"/><path d="m230.879 195.827v-25.356c0-4.142-3.357-7.5-7.5-7.5s-7.5 3.358-7.5 7.5v25.356c0 4.142 3.357 7.5 7.5 7.5s7.5-3.358 7.5-7.5z"/><path d="m504.266 253.743c-2.081-13.811-13.733-24.471-27.712-25.348-42.695-2.646-85.612-4.309-128.589-5.003 5.743-53.097 5.509-106.848-.738-159.877-2.376-20.219-18.838-35.813-39.138-37.08-87.608-5.513-176.451-5.513-264.058 0-20.296 1.267-36.761 16.859-39.149 37.079-5.913 50.238-6.457 101.208-1.617 151.495.397 4.123 4.06 7.143 8.185 6.747 4.123-.396 7.144-4.061 6.747-8.184-1.926-20.007-2.966-40.126-3.151-60.261 53.446.654 107.225.99 161.014.99 53.786 0 107.56-.337 161.003-.99-.218 23.345-1.607 46.68-4.166 69.891-68.547-.743-137.196.974-205.286 5.194-13.967.876-25.615 11.536-27.696 25.349-.057.381-.11.762-.167 1.143-18.14-.66-36.524-1.557-54.778-2.702-8.724-.547-16.692-5.324-21.316-12.778-2.184-3.521-6.809-4.602-10.326-2.42-3.521 2.184-4.604 6.807-2.42 10.327 7.179 11.574 19.562 18.991 33.123 19.842 17.879 1.121 35.883 2.006 53.664 2.666-7.954 62.843-7.219 126.37 2.219 189.086 2.081 13.812 13.729 24.472 27.702 25.348 57.878 3.589 116.219 5.385 174.514 5.385 46.226 0 92.424-1.129 138.34-3.39 4.137-.204 7.325-3.722 7.122-7.859s-3.693-7.333-7.86-7.122c-103.268 5.084-207.967 4.417-311.182-1.985-6.963-.437-12.768-5.741-13.804-12.611-10.021-66.586-10.021-134.111 0-200.696 1.036-6.872 6.841-12.176 13.798-12.612 115.16-7.138 231.935-7.137 347.077 0 6.969.437 12.777 5.741 13.812 12.61 10.012 66.587 10.012 134.112.001 200.697-1.036 6.871-6.845 12.175-13.811 12.612-2.39.149-4.779.298-7.159.426-4.136.224-7.308 3.758-7.084 7.895s3.785 7.305 7.895 7.084c2.421-.131 4.852-.282 7.285-.434 13.973-.876 25.625-11.537 27.707-25.35 10.234-68.069 10.234-137.094-.001-205.164zm-459.295-212.337c86.987-5.474 175.195-5.474 262.183 0 13.06.815 23.648 10.85 25.179 23.862.229 1.948.432 3.899.645 5.85-104.182-1.237-209.665-1.237-313.848 0 .213-1.949.419-3.9.649-5.847 1.536-13.014 12.13-23.05 25.192-23.865zm-29.912 96.903c.213-17.416 1.082-34.827 2.594-52.174 105.155-1.263 211.655-1.263 316.813 0 1.514 17.349 2.37 34.757 2.581 52.175-106.878 1.308-215.11 1.308-321.988-.001z"/><path d="m467.855 421.386c2.396 0 4.805.287 7.162.854 2.122.508 4.357.071 6.127-1.2 1.771-1.271 2.901-3.25 3.096-5.422 3.53-39.344 3.53-79.242 0-118.585-.194-2.171-1.325-4.151-3.096-5.422s-4.008-1.709-6.128-1.199c-2.354.566-4.764.854-7.161.854-16.826 0-30.516-13.689-30.516-30.516 0-.617.025-1.229.061-1.837.117-2.002-.573-3.967-1.915-5.457-1.343-1.49-3.226-2.38-5.229-2.472-42.678-1.958-85.8-2.951-128.169-2.951-43.688 0-88.339 1.069-132.711 3.176-1.995.095-3.869.981-5.208 2.462s-2.032 3.435-1.926 5.429c.029.546.046 1.097.046 1.65 0 16.826-13.689 30.516-30.516 30.516-1.139 0-2.34-.073-3.57-.216-2.02-.235-4.032.355-5.603 1.634s-2.557 3.138-2.735 5.155c-3.435 38.81-3.435 78.167 0 116.976.179 2.017 1.165 3.876 2.735 5.155s3.589 1.865 5.603 1.634c1.23-.143 2.432-.216 3.57-.216 16.826 0 30.516 13.689 30.516 30.516 0 .554-.017 1.104-.046 1.651-.106 1.994.587 3.947 1.926 5.428s3.214 2.367 5.208 2.462c44.365 2.107 89.016 3.176 132.711 3.176 42.369 0 85.491-.993 128.169-2.951 2.003-.092 3.886-.982 5.229-2.472 1.342-1.49 2.032-3.455 1.915-5.457-.035-.608-.061-1.22-.061-1.837.001-16.829 13.69-30.518 30.516-30.518zm-45.253 25.609c-40.17 1.742-80.678 2.624-120.515 2.624-41.19 0-83.233-.955-125.085-2.839-2.463-21.898-20.525-39.144-42.78-40.329-2.578-33.296-2.578-66.956 0-100.251 22.255-1.185 40.317-18.43 42.78-40.328 41.857-1.885 83.9-2.84 125.085-2.84 39.837 0 80.345.882 120.515 2.624 2.454 22.799 21.812 40.609 45.253 40.609.7 0 1.4-.017 2.101-.049 2.576 33.289 2.576 66.931 0 100.219-.7-.032-1.401-.049-2.101-.049-23.44 0-42.799 17.81-45.253 40.609z"/><path d="m302.088 276.964c-48.03 0-87.105 35.601-87.105 79.361s39.075 79.361 87.105 79.361 87.106-35.601 87.106-79.361-39.076-79.361-87.106-79.361zm0 143.721c-39.759 0-72.105-28.872-72.105-64.361s32.347-64.361 72.105-64.361c39.76 0 72.106 28.872 72.106 64.361s-32.347 64.361-72.106 64.361z"/><path d="m180.012 329.175c-14.971 0-27.15 12.18-27.15 27.15s12.18 27.15 27.15 27.15 27.15-12.179 27.15-27.15-12.18-27.15-27.15-27.15zm0 39.3c-6.7 0-12.15-5.45-12.15-12.15s5.45-12.15 12.15-12.15 12.15 5.451 12.15 12.15-5.45 12.15-12.15 12.15z"/><path d="m424.165 329.175c-14.971 0-27.149 12.18-27.149 27.15s12.179 27.15 27.149 27.15 27.15-12.179 27.15-27.15-12.179-27.15-27.15-27.15zm0 39.3c-6.699 0-12.149-5.45-12.149-12.15s5.45-12.15 12.149-12.15c6.7 0 12.15 5.451 12.15 12.15s-5.45 12.15-12.15 12.15z"/><path d="m312.886 348.725c-7.984-2.325-16.826-5.14-21.863-8.394-1.752-1.132-1.861-2.923-1.645-4.226.412-2.468 2.479-5.509 7.047-6.642 9.956-2.47 16.599 1.458 17.829 2.271 3.456 2.283 8.108 1.331 10.392-2.125 2.282-3.457 1.331-8.109-2.126-10.391-1.818-1.2-6.562-3.927-13.464-5.056v-2.356c0-4.142-3.357-7.5-7.5-7.5s-7.5 3.358-7.5 7.5v2.813c-.411.089-.824.182-1.242.286-9.574 2.375-16.729 9.729-18.231 18.734-1.293 7.757 1.889 15.149 8.302 19.292 5.368 3.468 12.845 6.421 25.809 10.196 6.052 1.762 9.18 5.223 8.582 9.498-.713 5.103-6.479 10.553-15.76 10.604-8.809.052-11.782-.341-18.63-4.03-3.645-1.965-8.195-.602-10.159 3.046-1.965 3.646-.602 8.195 3.046 10.16 7.164 3.859 12.205 5.212 18.284 5.644v2.796c0 4.142 3.357 7.5 7.5 7.5s7.5-3.358 7.5-7.5v-3.391c13.48-2.809 21.69-12.848 23.074-22.751 1.261-9.033-3.021-21.255-19.245-25.978z"/></g></g></svg>